<?xml version="1.0" encoding="UTF-8"?>
<svg id="Layer_1" xmlns="http://www.w3.org/2000/svg" version="1.1" viewBox="0 0 32 32">
  <!-- Generator: Adobe Illustrator 30.2.0, SVG Export Plug-In . SVG Version: 2.1.1 Build 105)  -->
  <defs>
    <style>
      .st0 {
        font-family: MyriadPro-Regular, 'Myriad Pro';
        font-size: 12px;
      }

      .st1 {
        fill: #f0f0f0;
      }
    </style>
  </defs>
  <rect class="st1" y="0" width="32" height="32" rx="6" ry="6"/>
  <text class="st0" transform="translate(-66.9 -3.7)"><tspan x="0" y="0">◕ ‿ ◕</tspan></text>
  <g>
    <path d="M8.4,15.4c0,1.9-1.5,3.4-3.4,3.4s-3.4-1.5-3.4-3.4,1.5-3.4,3.4-3.4,3.4,1.5,3.4,3.4ZM5,15.3v-2.6c-1.5.2-2.6,1.2-2.6,2.6h2.6Z"/>
    <path d="M30.4,15.4c0,1.9-1.5,3.4-3.4,3.4s-3.4-1.5-3.4-3.4,1.5-3.4,3.4-3.4,3.4,1.5,3.4,3.4ZM26.9,15.3v-2.6c-1.5.2-2.6,1.2-2.6,2.6h2.6Z"/>
    <path d="M20.7,18.4c-3.1,2.3-7,2-9.9-.2s0-.6,0-.8c3.2,2,7,2,10.2,0,.1,0,.2.5.2.6s-.3.2-.5.4Z"/>
  </g>
</svg>