<?xml version="1.0" encoding="UTF-8"?>
<svg id="Layer_1" xmlns="http://www.w3.org/2000/svg" version="1.1" viewBox="0 0 32 32">
  <!-- Generator: Adobe Illustrator 30.2.0, SVG Export Plug-In . SVG Version: 2.1.1 Build 105)  -->
  <path d="M7.8,15.4c0,2.1-1.6,3.7-3.7,3.7s-3.7-1.6-3.7-3.7,1.6-3.7,3.7-3.7,3.7,1.6,3.7,3.7ZM4.1,15.2v-2.8c-1.6.2-2.8,1.3-2.8,2.8,0,0,2.8,0,2.8,0Z"/>
  <path d="M31.6,15.4c0,2.1-1.6,3.7-3.7,3.7s-3.7-1.6-3.7-3.7,1.6-3.7,3.7-3.7,3.7,1.6,3.7,3.7ZM27.8,15.2v-2.8c-1.6.2-2.8,1.3-2.8,2.8,0,0,2.8,0,2.8,0Z"/>
  <path d="M21.1,18.6c-3.4,2.5-7.6,2.2-10.7-.2s0-.6,0-.9c3.5,2.2,7.6,2.2,11,0,.1,0,.2.5.2.6s-.3.2-.5.4Z"/>
</svg>